<svg xmlns="http://www.w3.org/2000/svg" viewBox="0 0 31.84 48.47"><defs><style>.cls-1{stroke:#000;stroke-miterlimit:10;stroke-width:0.5px;}</style></defs><title>mouse</title><g id="Шар_2" data-name="Шар 2"><g id="Шар_1-2" data-name="Шар 1"><path class="cls-1" d="M17.49.25H13.81C6.21.25.25,6.45.25,14.36V34.11c0,7.91,6,14.11,13.56,14.11h3.68a14.12,14.12,0,0,0,14.1-14.11V14.36A14.12,14.12,0,0,0,17.49.25ZM15.78,7.64h.28a.81.81,0,0,1,.81.81v5.74a.81.81,0,0,1-.81.81h-.28a.81.81,0,0,1-.81-.81V8.45a.81.81,0,0,1,.81-.81Zm14,26.47A12.27,12.27,0,0,1,17.49,46.37H13.81C7.24,46.37,2.09,41,2.09,34.11V14.36c0-6.88,5.15-12.27,11.72-12.27H15V5.92a2.65,2.65,0,0,0-1.86,2.53v5.74A2.66,2.66,0,0,0,15,16.73v4.74a.92.92,0,0,0,1.84,0V16.73a2.66,2.66,0,0,0,1.89-2.54V8.45a2.66,2.66,0,0,0-1.89-2.54V2.09h.66A12.28,12.28,0,0,1,29.75,14.36Z"/></g></g></svg>