<svg xmlns="http://www.w3.org/2000/svg" viewBox="0 0 44.69 44.69"><defs><style>.cls-1{fill:#828384;}</style></defs><title>info</title><g id="Шар_2" data-name="Шар 2"><g id="Шар_1-2" data-name="Шар 1"><path class="cls-1" d="M22.35,0A22.35,22.35,0,1,0,44.69,22.34,22.37,22.37,0,0,0,22.35,0Zm0,42.68A20.34,20.34,0,1,1,42.69,22.34,20.36,20.36,0,0,1,22.35,42.68Z"/><path class="cls-1" d="M22.2,15.05a1.51,1.51,0,0,0-1.5,1.51v17a1.51,1.51,0,1,0,3,0v-17a1.52,1.52,0,0,0-1.51-1.51Z"/><path class="cls-1" d="M24.13,10.89A1.83,1.83,0,1,1,22.3,9.06a1.83,1.83,0,0,1,1.83,1.83Z"/></g></g></svg>