<svg xmlns="http://www.w3.org/2000/svg" viewBox="0 0 31.34 47.97"><defs><style>.cls-1{fill:#fff;}</style></defs><title>mouseW</title><g id="Шар_2" data-name="Шар 2"><g id="Шар_1-2" data-name="Шар 1"><path class="cls-1" d="M17.24,0H13.56C6,0,0,6.2,0,14.11V33.86C0,41.77,6,48,13.56,48h3.68a14.12,14.12,0,0,0,14.1-14.11V14.11A14.12,14.12,0,0,0,17.24,0ZM15.53,7.39h.28a.81.81,0,0,1,.81.81v5.74a.81.81,0,0,1-.81.81h-.28a.81.81,0,0,1-.81-.81V8.2a.81.81,0,0,1,.81-.81Zm14,26.47A12.27,12.27,0,0,1,17.24,46.12H13.56C7,46.12,1.84,40.73,1.84,33.86V14.11C1.84,7.23,7,1.84,13.56,1.84h1.18V5.67A2.65,2.65,0,0,0,12.88,8.2v5.74a2.66,2.66,0,0,0,1.86,2.54v4.74a.92.92,0,0,0,1.84,0V16.48a2.66,2.66,0,0,0,1.89-2.54V8.2a2.66,2.66,0,0,0-1.89-2.54V1.84h.66A12.28,12.28,0,0,1,29.5,14.11Z"/></g></g></svg>