<svg xmlns="http://www.w3.org/2000/svg" viewBox="0 0 19.2 20.8"><defs><style>.cls-1{fill:#838383;fill-rule:evenodd;}</style></defs><title>share</title><g id="Шар_2" data-name="Шар 2"><g id="Шар_1-2" data-name="Шар 1"><path class="cls-1" d="M15.2,12.8a4,4,0,0,0-3.36,1.85L7.55,12.2A3.9,3.9,0,0,0,8,10.4a4,4,0,0,0-.19-1.15L12.27,6.7A4,4,0,0,0,15.2,8a4,4,0,1,0-4-4,4,4,0,0,0,.19,1.15L6.93,7.7A4,4,0,0,0,4,6.4a4,4,0,1,0,2.41,7.17v0l4.84,2.77c0,.14,0,.28,0,.43a4,4,0,1,0,4-4Zm0-11.2A2.4,2.4,0,1,1,12.8,4a2.4,2.4,0,0,1,2.4-2.4ZM4,12.8a2.4,2.4,0,1,1,2.4-2.4A2.4,2.4,0,0,1,4,12.8Zm11.2,6.4a2.4,2.4,0,1,1,2.4-2.4,2.4,2.4,0,0,1-2.4,2.4Z"/></g></g></svg>